<svg id="Group_2597" data-name="Group 2597" xmlns="http://www.w3.org/2000/svg" width="13.903" height="26.796" viewBox="0 0 13.903 26.796">
  <path id="Path_7068" data-name="Path 7068" d="M13.271,17.92a2.13,2.13,0,0,1,1.646-.575,9.631,9.631,0,0,1,2.491.348l.714-3.824a13.413,13.413,0,0,0-4.521-.653,7.363,7.363,0,0,0-3.772.81,4.11,4.11,0,0,0-2.021,2.065,9.828,9.828,0,0,0-.566,3.859v1.507H4.22V25.83H7.243V39.585a17.811,17.811,0,0,0,3.955.427,8.429,8.429,0,0,0,1.551-.1V25.83h4.007V21.457H12.748V20.046A3,3,0,0,1,13.271,17.92Z" transform="translate(-4.22 -13.216)" fill="#444851"/>
</svg>
