<svg id="Group_2603" data-name="Group 2603" xmlns="http://www.w3.org/2000/svg" width="19.74" height="19.705" viewBox="0 0 19.74 19.705">
  <path id="Path_7075" data-name="Path 7075" d="M35.976,13.077H21.463a2.346,2.346,0,0,0-2.613,2.64V30.2a2.312,2.312,0,0,0,2.535,2.579H35.976a2.344,2.344,0,0,0,2.613-2.6V15.656A2.343,2.343,0,0,0,35.976,13.077Zm-1.594,2.239c1.951,0,1.951,0,1.951,1.96,0,1.9,0,1.9-1.916,1.9-1.943,0-1.943,0-1.943-1.934S32.474,15.316,34.382,15.316Zm-5.654,3.789a3.82,3.82,0,1,1-3.842,3.789A3.907,3.907,0,0,1,28.729,19.105Zm7.6,10.271c-.017.923-.253,1.176-1.167,1.176h-12.9c-.9,0-1.159-.253-1.159-1.176,0-2.378.009-4.8-.035-7.2,0-.679.192-.828.819-.81.906.078.923.035.819.923a6.039,6.039,0,0,0,11.8,2.352,6.01,6.01,0,0,0,.139-2.831c-.07-.348.017-.409.322-.409,1.359-.1,1.359-.122,1.359,1.289Z" transform="translate(-18.85 -13.077)" fill="#444851" fill-rule="evenodd"/>
</svg>
