<svg id="Group_279" data-name="Group 279" xmlns="http://www.w3.org/2000/svg" width="51.626" height="51.627" viewBox="0 0 51.626 51.627">
  <path id="Path_7567" data-name="Path 7567" d="M1997.946-1256.671a25.81,25.81,0,0,1-25.844,25.822,25.811,25.811,0,0,1-25.782-25.884,25.81,25.81,0,0,1,25.965-25.743A25.814,25.814,0,0,1,1997.946-1256.671Zm-28.726,7.429h4.085v-.471c0-2.255-.021-4.511.016-6.766a4.986,4.986,0,0,1,.329-1.679,2.269,2.269,0,0,1,2.467-1.342,2.012,2.012,0,0,1,1.91,1.72,8.149,8.149,0,0,1,.163,1.636c.018,2.148.007,4.3.007,6.444v.465h4.208a1.756,1.756,0,0,0,.028-.216c-.006-3.047.007-6.1-.031-9.142a5.019,5.019,0,0,0-1.049-3.072,5.1,5.1,0,0,0-7.634-.053c-.124.145-.243.292-.438.527v-1.764h-4.063Zm-6.947-13.715v13.717h4.209v-13.717Zm-.443-4.364a2.52,2.52,0,0,0,2.493,2.568,2.523,2.523,0,0,0,2.541-2.479,2.522,2.522,0,0,0-2.493-2.606A2.515,2.515,0,0,0,1961.831-1267.321Z" transform="translate(-1946.32 1282.476)" fill="#346da5"/>
  <path id="Path_7568" data-name="Path 7568" d="M2230.593-1031.6v-13.713h4.063v1.764c.195-.234.314-.382.438-.526a5.1,5.1,0,0,1,7.634.053,5.018,5.018,0,0,1,1.049,3.072c.038,3.047.025,6.095.031,9.142a1.711,1.711,0,0,1-.029.215h-4.208v-.465c0-2.148.01-4.3-.007-6.444a8.15,8.15,0,0,0-.163-1.636,2.012,2.012,0,0,0-1.91-1.72,2.27,2.27,0,0,0-2.468,1.342,4.991,4.991,0,0,0-.33,1.679c-.036,2.255-.016,4.511-.016,6.766v.471Z" transform="translate(-2207.693 1064.83)" fill="#fff"/>
  <path id="Path_7569" data-name="Path 7569" d="M2144.363-1040.175h4.209v13.717h-4.209Z" transform="translate(-2128.409 1059.694)" fill="#fff"/>
  <path id="Path_7570" data-name="Path 7570" d="M2138.868-1123.093a2.515,2.515,0,0,1,2.541-2.518A2.522,2.522,0,0,1,2143.9-1123a2.523,2.523,0,0,1-2.541,2.479A2.52,2.52,0,0,1,2138.868-1123.093Z" transform="translate(-2123.357 1138.247)" fill="#fff"/>
</svg>
