<svg xmlns="http://www.w3.org/2000/svg" width="32.349" height="32.35" viewBox="0 0 32.349 32.35">
  <g id="Group_286" data-name="Group 286" transform="translate(-4741.508 -1711.672)">
    <g id="Group_2594" data-name="Group 2594" transform="translate(4741.508 1711.672)">
      <g id="Group_2593" data-name="Group 2593" transform="translate(0 0)">
        <path id="Path_7064" data-name="Path 7064" d="M4741.986,1723.962a16.17,16.17,0,1,1,11.811,19.582,16.167,16.167,0,0,1-11.811-19.582" transform="translate(-4741.508 -1711.672)" fill="#edeeef"/>
        <path id="Path_7065" data-name="Path 7065" d="M4760.688,1711.967a16.083,16.083,0,0,0-5.76-.046v12.921h-13.124a16.1,16.1,0,0,0-.053,5.759h13.176v13.189a16.08,16.08,0,0,0,5.76-.038V1730.6h12.94a16.065,16.065,0,0,0-.045-5.759h-12.895Z" transform="translate(-4741.518 -1711.682)" fill="#e71e1a"/>
      </g>
    </g>
  </g>
</svg>
