<svg id="Group_2601" data-name="Group 2601" xmlns="http://www.w3.org/2000/svg" width="23.261" height="19.054" viewBox="0 0 23.261 19.054">
  <path id="Path_7073" data-name="Path 7073" d="M13.648,30.086a10.377,10.377,0,0,0,5.009-.854,8.84,8.84,0,0,0,2-1.211A4.774,4.774,0,0,1,16.3,24.938c-.1-.253-.1-.253.183-.235a3.788,3.788,0,0,0,1.76-.113,4.942,4.942,0,0,1-1.132-.427,4.836,4.836,0,0,1-2.6-4.094c-.017-.218.044-.235.235-.148a4.71,4.71,0,0,0,1.882.514c-.3-.27-.566-.5-.81-.732a4.928,4.928,0,0,1-.758-5.436c.122-.244.166-.244.331-.052a13.553,13.553,0,0,0,8.372,4.669c.34.07.714.07,1.063.148.235.035.261-.078.226-.261a4.8,4.8,0,0,1,8.032-4.321.53.53,0,0,0,.531.131,8.933,8.933,0,0,0,2.526-.993.476.476,0,0,0,.209-.131,4.728,4.728,0,0,1-2.021,2.657,10.023,10.023,0,0,0,2.579-.671c.017.1-.07.174-.113.27a9.786,9.786,0,0,1-1.995,2.03.417.417,0,0,0-.174.383,13.938,13.938,0,0,1-3.31,9.373,12.95,12.95,0,0,1-8.014,4.5,13.65,13.65,0,0,1-9.548-1.855Z" transform="translate(-13.648 -13.127)" fill="#444851" fill-rule="evenodd"/>
</svg>
