<svg xmlns="http://www.w3.org/2000/svg" width="22.247" height="22.365" viewBox="0 0 22.247 22.365">
  <g id="Group_2599" data-name="Group 2599" transform="translate(0)">
    <path id="Path_7070" data-name="Path 7070" d="M30.655,21.481a11.112,11.112,0,0,0-10.828-8.572,15.69,15.69,0,0,0-2.126.218,11.082,11.082,0,0,0-7.6,16.168.723.723,0,0,1,.1.549c-.514,1.707-.993,3.45-1.455,5.166-.07.3-.07.3.209.227,1.8-.5,3.58-.958,5.384-1.4a.469.469,0,0,1,.392.026A11.105,11.105,0,0,0,30.655,21.481ZM21.386,33.11a5.428,5.428,0,0,1-1.281.1A9.647,9.647,0,0,1,15.1,31.934a.57.57,0,0,0-.566-.087c-1,.235-1.977.514-2.971.767-.209.061-.226.017-.183-.183.261-.915.514-1.847.8-2.805a.693.693,0,0,0-.113-.653,9.177,9.177,0,0,1,.322-10.349,8.784,8.784,0,0,1,9.391-3.615,8.694,8.694,0,0,1,7.047,7A9.154,9.154,0,0,1,21.386,33.11Z" transform="translate(-8.708 -12.909)" fill="#444851" fill-rule="evenodd"/>
    <path id="Path_7071" data-name="Path 7071" d="M17.852,24.039a2.89,2.89,0,0,1-1.15-.148,11.254,11.254,0,0,1-6-4.408,6.277,6.277,0,0,1-1.289-2.622A3.01,3.01,0,0,1,10.4,13.9a1.671,1.671,0,0,1,1.481-.218,1.132,1.132,0,0,1,.253.287c.314.793.645,1.524.967,2.274a.631.631,0,0,1-.044.47,4.716,4.716,0,0,1-.688.923.406.406,0,0,0-.061.6A7.381,7.381,0,0,0,16.1,21.5a.432.432,0,0,0,.566-.131c.287-.331.566-.7.828-1.045a.468.468,0,0,1,.619-.139c.549.235,1.08.488,1.6.732.139.078.244.122.375.183.549.27.549.3.479.9-.07,1.159-.958,1.742-1.977,2.03A1.778,1.778,0,0,1,17.852,24.039Z" transform="translate(-3.831 -7.653)" fill="#444851" fill-rule="evenodd"/>
  </g>
</svg>
